<?xml version="1.0" standalone="no"?>
<!DOCTYPE svg PUBLIC "-//W3C//DTD SVG 20010904//EN"
 "http://www.w3.org/TR/2001/REC-SVG-20010904/DTD/svg10.dtd">
<svg version="1.0" xmlns="http://www.w3.org/2000/svg"
 width="500.000000pt" height="500.000000pt" viewBox="0 0 500.000000 500.000000"
 preserveAspectRatio="xMidYMid meet">
<metadata>
Created by potrace 1.11, written by Peter Selinger 2001-2013
</metadata>
<g transform="translate(0.000000,500.000000) scale(0.100000,-0.100000)"
fill="#000000" stroke="none">
<path d="M1938 4480 c-137 -25 -260 -92 -355 -195 -36 -38 -73 -86 -83 -105
-16 -32 -27 -38 -94 -59 -130 -40 -245 -121 -325 -231 -80 -110 -123 -228
-130 -360 -1 -9 -13 -23 -28 -32 -42 -25 -114 -96 -160 -158 -117 -158 -166
-350 -141 -552 l10 -78 -29 -27 c-87 -83 -173 -240 -199 -366 -27 -128 -19
-272 23 -397 16 -50 71 -158 90 -178 7 -7 13 -16 13 -20 0 -12 92 -106 148
-151 47 -39 52 -46 52 -84 0 -69 28 -167 72 -257 90 -182 286 -329 488 -366
113 -21 106 -18 133 -62 37 -57 157 -164 229 -202 70 -38 142 -65 203 -77 50
-9 206 -10 260 -1 122 20 250 86 352 181 l32 30 58 -49 c81 -69 109 -86 183
-117 220 -91 474 -66 665 66 52 36 145 130 173 174 20 31 34 43 52 44 71 2
173 31 254 70 139 69 235 165 324 328 25 45 53 146 59 213 6 66 7 69 52 105
67 55 125 116 160 169 202 298 174 671 -69 934 -41 45 -41 45 -34 100 11 72
12 207 2 245 -4 17 -9 42 -12 56 -8 46 -63 174 -99 231 -35 53 -123 148 -185
198 -26 20 -33 34 -37 75 -12 111 -50 208 -122 311 -76 110 -198 197 -328 235
-67 20 -72 24 -104 74 -66 103 -197 212 -296 246 -22 7 -44 16 -50 20 -23 16
-170 32 -243 26 -129 -10 -235 -52 -344 -136 -59 -45 -65 -47 -79 -32 -35 42
-159 109 -262 142 -70 23 -208 32 -279 19z m200 -381 c73 -28 135 -93 161
-170 9 -27 12 -377 12 -1400 0 -750 -3 -1377 -6 -1394 -16 -77 -90 -177 -159
-212 -91 -47 -205 -51 -290 -9 -91 44 -147 121 -196 268 -25 76 -21 74 -120
55 -36 -7 -93 -12 -127 -10 -159 5 -302 142 -306 292 -1 59 9 140 23 191 5 17
8 34 7 38 0 4 -40 23 -88 44 -149 62 -203 110 -256 225 -22 47 -26 72 -27 143
0 75 3 93 30 150 17 36 48 83 70 106 36 37 202 144 224 144 17 0 12 16 -34
112 -58 124 -68 159 -68 232 0 106 66 225 164 296 22 16 80 46 129 66 86 36
90 39 84 63 -4 14 -9 35 -11 46 -2 11 -9 42 -15 69 -25 103 6 205 83 271 61
53 101 64 227 60 l107 -3 16 73 c9 41 26 94 37 118 26 57 101 124 155 138 23
5 46 11 51 13 17 5 94 -4 123 -15z m915 -4 c45 -19 100 -66 126 -108 16 -27
43 -113 57 -181 2 -10 6 -21 10 -25 3 -3 58 -6 122 -6 133 0 173 -14 230 -80
55 -62 66 -93 66 -175 -1 -72 -4 -94 -24 -170 -6 -19 -10 -38 -10 -41 0 -5 22
-15 138 -62 115 -47 222 -181 240 -298 11 -79 -4 -149 -59 -260 -27 -55 -49
-103 -49 -108 0 -5 37 -30 83 -56 108 -63 158 -104 195 -162 117 -185 50 -438
-142 -531 -92 -45 -155 -72 -166 -72 -6 0 -9 -3 -7 -7 3 -5 8 -30 11 -56 4
-26 11 -70 16 -98 19 -101 -14 -206 -88 -277 -87 -83 -187 -110 -327 -87 -16
3 -49 8 -71 11 l-41 6 -22 -67 c-47 -145 -106 -226 -196 -270 -84 -42 -199
-38 -290 9 -68 35 -134 119 -155 197 -17 61 -18 2744 -1 2805 39 145 213 228
354 169z"/>
</g>
</svg>
